# xmcd
#
# Track frame offsets:
#	150
#	11537
#	26422
#	39652
#	52470
#	63197
#	81080
#	93712
#	109900
#	130177
#	143685
#	153512
#	168792
#	180505
#	196497
#	207460
#	224025
#	236102
#	249250
#
# Disc length: 3466 seconds
#
# Revision: 3
# Processed by: cddbd v1.5.2PL0 Copyright (c) Steve Scherf et al.
# Submitted via: EasyCDDAExtractor 10.0.2.1
#
DISCID=120d8813
DTITLE=Various Artist - A Celebration of Country and Pop Music-disc.1
DYEAR=1995
DGENRE=Country
TTITLE0=Lettermen - Kiss an Angel Good Morning
TTITLE1=Eddy Arnold - Can't Take My Eyes Off You
TTITLE2=Barbara Mandrell - The Nearness of You
TTITLE3=Jim Ed Brown - Hold Me, Thrill Me, Kiss Me
TTITLE4=Various Artist - Mister Sandman
TTITLE5=Randy Travis - It's Just A Matter of Time
TTITLE6=Patsy Cline - You Made Me Love You
TTITLE7=Willie Nelson - Blue Skies
TTITLE8=Andy Williams - Honey
TTITLE9=Hank Locklin and Jordanaires - I Don't Know Why
TTITLE10=Statler Bros. - Moments to Remember
TTITLE11=Elvis Presley - Gentle On My Mind
TTITLE12=Dottie West - Old Cape Cod
TTITLE13=Eddy Arnold - Yesterday, WHen I Was Young
TTITLE14=Patsy Cline - South of the Border
TTITLE15=Lettermen - For the Good Times
TTITLE16=Tennessee Ernie Ford - I Left My Heart in San Francisco
TTITLE17=Billie Jo Spears - Yesterday
TTITLE18=George Hamilton IV - George Hamilton IV - I Wonder Who's Kissing Her 
TTITLE18=Now
EXTD=
EXTT0=
EXTT1=
EXTT2=
EXTT3=
EXTT4=
EXTT5=
EXTT6=
EXTT7=
EXTT8=
EXTT9=
EXTT10=
EXTT11=
EXTT12=
EXTT13=
EXTT14=
EXTT15=
EXTT16=
EXTT17=
EXTT18=
PLAYORDER=
